<svg enable-background="new 0 0 128 128" viewBox="0 0 128 128" xmlns="http://www.w3.org/2000/svg" xmlns:xlink="http://www.w3.org/1999/xlink"><radialGradient id="a" cx="63.47" cy="85.108" gradientUnits="userSpaceOnUse" r="57.963"><stop offset=".0108" stop-color="#fafafa"/><stop offset=".9993" stop-color="#debcc0"/></radialGradient><linearGradient id="b"><stop offset=".0098357" stop-color="#efd3d7"/><stop offset=".2047" stop-color="#e3c5ca"/><stop offset=".4355" stop-color="#d1afb5"/><stop offset=".9534" stop-color="#907894"/></linearGradient><linearGradient id="c" gradientUnits="userSpaceOnUse" x1="26.975" x2="26.975" xlink:href="#b" y1="51.531" y2="131.29"/><linearGradient id="d" gradientUnits="userSpaceOnUse" x1="51.62" x2="51.62" y1="130.55" y2="11.535"><stop offset=".0098357" stop-color="#efd3d7"/><stop offset=".2319" stop-color="#ddbec3"/><stop offset=".4355" stop-color="#d1afb5"/><stop offset="1" stop-color="#907894"/></linearGradient><linearGradient id="e" gradientUnits="userSpaceOnUse" x1="79.244" x2="79.244" xlink:href="#b" y1="54.661" y2="128.91"/><linearGradient id="f" gradientUnits="userSpaceOnUse" x1="102.06" x2="102.06" xlink:href="#b" y1="41.459" y2="126.19"/><linearGradient id="g" gradientUnits="userSpaceOnUse" x1="64" x2="64" y1="5.2188" y2="112.26"><stop offset="0" stop-color="#e2d3f5"/><stop offset="1" stop-color="#9f88ba"/></linearGradient><path d="m58.95 10.84c-.37.17-.6.54-.59.95.13 3.76-.22 22.53-19.1 36.09-14.22 10.21-30.11 19.46-30.11 37.83 0 20.54 17.06 21.62 17.06 21.62s-.28 4.97 6.61 9.61c9.01 6.07 19.48 1.2 19.48 1.2s3.96 5.41 13.04 5.41c12.04 0 15.98-7.22 15.98-7.22s5.18 3.01 10.7 1.82c11.26-2.43 12.39-12.14 12.39-12.14s10.67.9 13.89-13.9c2.82-12.94-7.1-25.75-22.87-36.67s-20.93-14.07-22.06-23.78c-.88-7.62.73-20.63 1.52-25.86.15-.98-1.03-1.58-1.94-1.17z" fill="url(#a)"/><path d="m19.24 105.16c2.92 1.56 5.99 2.06 6.97 2.18-2.62-16.31 4.33-26.31 10.44-36.78-9.69 8.87-24.73 21.51-17.41 34.6z" fill="url(#c)"/><path d="m56.65 23.94c-.01 4.42-.69 9.96-3.97 19.25-4.07 11.51-12.36 23.86-12.36 23.86s9.33-11.5 16-21c2.33 14-18.5 33.17-18.5 51 0 20.17 14.4 21.03 14.4 21.03s-13.13-8.59-.4-36.03c12.83-27.67 16.2-51.23 11.71-73.25l-2.36 1.05c-1.67.74-2.76 2.37-2.84 4.19-.09 2.31-.47 5.81-1.68 9.9z" fill="url(#d)"/><path d="m88.36 92.57c-4.95-24-17.21-26.16-16.21-48.16-4.5 18.68-3.25 31.5 4 43.54 9.79 16.25 5.18 28.39 5.18 28.39.6.28 10.07-9 7.03-23.77z" fill="url(#e)"/><path d="m105.4 72.43 2.92 12.12s-8.55-14.81-19.36-23.69c0 0 13.1 15.82 15.44 30.57 1.17 7.37.02 14.59.02 14.59s6.07.07 9.86-5.61c4.37-18.86-8.88-27.98-8.88-27.98z" fill="url(#f)"/><path d="m71.58 8.36c-.84 6.59-2.79 16.57-2.05 22.95 1.32 11.34 7.43 15.56 22.21 25.78l2.14 1.48c15.73 10.9 23.46 18.76 22.04 31.46-1.36 12.12-10.33 13.61-11.23 13.65 0 0-.64 9.95-11.78 11.18-7.68.84-10.7-2.65-10.7-2.65s-3.9 8.35-16.83 8.67c-9.42.26-15.79-5.6-15.79-5.6s-4.47 2.46-10.96 1.11c-4.51-.93-8.5-3.59-11-7.46-1.77-2.74-1.78-4.36-1.78-4.36-2.57-.3-14.22-1.89-13.94-18.36 0-14.91 12.1-23.43 24.91-32.44 1.41-.99 2.83-1.99 4.22-2.99 18.63-13.38 20.09-31.26 20.28-38.33l9.21-3.64 1.05-.45zm3.2-3.67c-.57-.3-1.24-.32-1.83-.06l-14.25 6.32c-.23.1-.37.33-.35.57.15 3.03.28 22.43-19.09 36.35-14.22 10.22-30.11 19.47-30.11 37.84 0 18.46 12.07 20.88 14.86 21.25 0 0 .14 4.54 7.43 9.38 3.46 2.33 8.52 3.65 11.73 3.65 4.19 0 5.36-.69 7.38-1.11 0 0 4.19 4.67 14.79 4.67 12.75 0 17.19-6.62 17.19-6.62 1.12.56 3.35 1.51 6.81 1.51 13.68 1.62 17.25-12.41 17.25-12.41 2.24-.23 10.48-2.06 12.06-16.14 1.66-14.74-7.44-23.52-23.21-34.44s-20.94-14.08-22.07-23.79c-1.02-8.81 1.29-23.68 1.72-26.35.04-.26-.08-.5-.31-.62z" fill="url(#g)"/></svg>